HIERARCHY
ROOT Hips
{
  OFFSET 0 0 0
  CHANNELS 6 Xposition Yposition Zposition Zrotation Yrotation Xrotation
  JOINT LeftThigh
  {
    OFFSET 8.409438 0 -5.917753
    CHANNELS 3 Zrotation Yrotation Xrotation
    JOINT LeftLeg
    {
      OFFSET 0 0 -42.358652
      CHANNELS 3 Zrotation Yrotation Xrotation
      JOINT LeftFoot
      {
        OFFSET 0 0 -39.357303
        CHANNELS 3 Zrotation Yrotation Xrotation
      }
    }
  }
  JOINT RightThigh
  {
    OFFSET -8.409438 0 -5.917753
    CHANNELS 3 Zrotation Yrotation Xrotation
    JOINT RightLeg
    {
      OFFSET 0 0 -42.358652
      CHANNELS 3 Zrotation Yrotation Xrotation
      JOINT RightFoot
      {
        OFFSET 0 0 -39.357303
        CHANNELS 3 Zrotation Yrotation Xrotation
      }
    }
  }
  JOINT SpineLow
  {
    OFFSET 0 0 4.719101
    CHANNELS 3 Zrotation Yrotation Xrotation
    JOINT SpineMid
    {
      OFFSET 0 0 12.899191
      CHANNELS 3 Zrotation Yrotation Xrotation
      JOINT Chest
      {
        OFFSET 0 0 12.899191
        CHANNELS 3 Zrotation Yrotation Xrotation
        JOINT LeftShoulder
        {
          OFFSET 7.550562 1.41573 9.438202
          CHANNELS 3 Zrotation Yrotation Xrotation
          JOINT LeftArm
          {
            OFFSET 9.155056 0 4.247191
            CHANNELS 3 Zrotation Yrotation Xrotation
            JOINT LeftForearm
            {
              OFFSET 0 0 25.771955
              CHANNELS 3 Zrotation Yrotation Xrotation
              JOINT LeftHand
              {
                OFFSET 0 0 25.197169
                CHANNELS 3 Zrotation Yrotation Xrotation
              }
            }
          }
        }
        JOINT RightShoulder
        {
          OFFSET -7.550562 1.41573 9.438202
          CHANNELS 3 Zrotation Yrotation Xrotation
          JOINT RightArm
          {
            OFFSET -9.155056 0 4.247191
            CHANNELS 3 Zrotation Yrotation Xrotation
            JOINT RightForearm
            {
              OFFSET 0 0 -25.771955
              CHANNELS 3 Zrotation Yrotation Xrotation
              JOINT RightHand
              {
                OFFSET 0 0 -25.197169
                CHANNELS 3 Zrotation Yrotation Xrotation
              }
            }
          }
        }
        JOINT Neck
        {
          OFFSET 0 0 15.101124
          CHANNELS 3 Zrotation Yrotation Xrotation
          JOINT Head
          {
            OFFSET 0 0 11.325843
            CHANNELS 3 Zrotation Yrotation Xrotation
            End Site
            {
              OFFSET 0 0 14.157303
            }
          }
        }
      }
    }
  }
}
MOTION
Frames: 14
Frame Time: 0.0
0.0  93.25843  0.0  -97.118743  38.857405  -173.719035  30.583432  -46.330339  -38.624612  5.814412  1.727163  4.531067  -6.434616  -2.617727  0.016951  5.77236  38.864723  -40.33957  -15.883348  9.44704  22.21342  -3.575879  -0.12598  4.90241  -0.108163  -3.484353  -0.774765  -0.184517  -9.526469  -2.115617  -0.184517  -9.526468  -2.115617  -34.232527  24.860125  -2.658639  125.469256  59.58086  -157.565178  -18.411583  5.095362  66.07817  50.377215  -1.47281  6.401447  -9.185157  -7.750289  11.850908  56.391206  41.764071  36.112464  -29.633193  -2.681875  -102.302351  82.960869  -2.912519  -18.978161  -23.673228  -5.171685  13.334511  -17.640085  -4.405567  9.810821  
0.0  93.25843  0.0  -99.171151  38.89112  -176.027433  31.44405  -45.241665  -39.533092  4.824956  1.753679  4.593287  -6.934837  -2.827965  -0.326694  5.275533  38.534226  -39.684927  -14.899269  10.177424  25.534392  -4.300014  0.073307  4.891492  -0.378813  -3.421294  -0.638223  -0.950439  -9.36082  -1.701092  -0.950439  -9.36082  -1.701091  -34.647745  25.327377  -2.877412  126.838254  60.459056  -156.41945  -17.787585  5.530162  66.53093  49.845863  -1.978777  6.39961  -9.080889  -7.340872  11.432402  55.007888  42.447616  35.895333  -28.442824  -4.459054  -102.964601  81.865963  -3.194789  -18.743427  -23.852925  -5.280901  12.860411  -17.77532  -4.472977  9.448978  
0.0  93.25843  0.0  -100.107935  38.687544  -176.801348  34.400415  -44.219785  -42.029957  4.146516  2.255672  5.001173  -7.911463  -2.84466  -0.491626  2.860417  36.698486  -41.289423  -12.728718  11.473282  28.55312  -4.670836  0.239035  4.940599  -0.585332  -3.416536  -0.579981  -1.526863  -9.35165  -1.511379  -1.526863  -9.35165  -1.511379  -34.564486  25.777767  -3.365693  128.101459  61.13804  -155.252223  -17.519234  6.110836  66.831866  49.340898  -2.421779  6.277039  -8.157847  -7.124225  10.803337  53.480141  43.001355  35.584175  -27.555393  -5.519258  -103.320818  81.327815  -3.421849  -18.17509  -23.674655  -5.254531  12.43398  -17.645374  -4.432562  9.131183  
0.0  93.25843  0.0  -100.923507  38.558067  -177.473923  35.756842  -43.798293  -43.346992  4.232243  2.589556  5.465593  -9.466949  -2.454824  -0.665786  -0.764179  34.014573  -43.809837  -9.955495  13.294029  31.682538  -4.717932  0.446888  5.058757  -0.80881  -3.415035  -0.510939  -2.1514  -9.350186  -1.28952  -2.1514  -9.350186  -1.289519  -34.380806  26.147993  -4.059756  128.341346  61.395781  -154.764843  -17.70918  6.35379  67.002757  48.99258  -2.811218  5.924184  -7.38271  -6.985146  10.344393  50.795435  43.057711  36.296933  -26.239029  -6.173388  -105.995567  81.763521  -3.443172  -17.380359  -23.386241  -5.167206  12.086069  -17.433757  -4.347398  8.875646  
0.0  93.25843  0.0  -101.301281  38.445639  -177.769774  35.686221  -44.090941  -43.640512  4.954305  2.698522  5.864949  -9.796648  -2.444263  -0.708156  -4.356158  30.890705  -46.713463  -7.029876  15.462124  34.99138  -4.608732  0.737691  5.226569  -0.981214  -3.429055  -0.48131  -2.629656  -9.390442  -1.182808  -2.629656  -9.390443  -1.182807  -34.127175  26.572734  -4.622713  127.40581  61.292659  -155.013434  -18.247467  6.060915  67.096913  48.833552  -3.132028  5.342428  -6.657456  -7.012253  10.055899  49.702096  43.546471  35.753886  -26.236824  -6.21138  -106.047971  82.79059  -3.272499  -16.581681  -23.048373  -4.99055  11.899478  -17.185982  -4.200619  8.745115  
0.0  93.25843  0.0  -101.352525  38.431643  -177.815936  35.2089  -44.40104  -43.549819  5.395413  2.706833  6.179965  -9.732493  -2.440863  -0.643991  -6.903486  27.291843  -50.632043  -3.917318  18.766027  39.756457  -4.043138  1.030109  5.387452  -1.069466  -3.427235  -0.51121  -2.868107  -9.38818  -1.252402  -2.868107  -9.38818  -1.252401  -34.080649  26.994724  -4.837144  126.090676  61.028476  -155.371976  -18.786515  5.41554  67.134439  48.837577  -3.414373  4.568288  -6.49521  -7.104308  10.193425  49.021198  43.848965  35.795623  -26.9295  -5.990953  -106.562437  83.719386  -3.039718  -16.033625  -22.884462  -4.765051  11.954401  -17.068084  -4.029953  8.796505  
0.0  93.25843  0.0  -101.042527  38.53839  -177.584951  35.126426  -44.581263  -43.600254  5.423154  2.901732  6.602163  -9.433731  -2.544459  -0.56376  -8.670321  24.248715  -52.628181  -1.649718  21.838453  42.917035  -3.272566  1.239187  5.571734  -1.096608  -3.402637  -0.559624  -2.936113  -9.323546  -1.382646  -2.936113  -9.323546  -1.382645  -34.161494  27.287501  -4.84093  125.108932  60.954709  -155.426111  -19.099459  4.859827  67.18466  48.976019  -3.688262  3.649434  -6.624236  -7.252583  10.361983  48.35818  44.461389  35.481551  -27.58847  -5.738536  -106.690052  84.174053  -2.7721  -15.823664  -22.763444  -4.59074  12.139909  -16.980317  -3.903512  8.943508  
0.0  93.25843  0.0  -100.884555  38.912836  -177.813615  34.391715  -44.89776  -43.037172  5.871523  3.024759  7.117413  -9.408033  -2.484071  -0.514657  -9.66269  21.814623  -53.764174  0.482632  24.914231  46.182478  -2.554226  1.338573  5.776313  -1.175535  -3.340425  -0.554564  -3.154652  -9.154819  -1.360237  -3.154651  -9.154818  -1.360237  -34.227914  27.494595  -4.761096  124.854182  61.192982  -154.967983  -19.073324  4.631505  67.275918  49.243471  -3.965642  2.774183  -6.742203  -7.403128  10.469631  47.470629  45.23168  35.061208  -27.833613  -5.772601  -106.736996  84.14581  -2.379693  -15.857353  -22.563943  -4.452822  12.357637  -16.832686  -3.803914  9.113661  
0.0  93.25843  0.0  -100.309876  39.373835  -177.438212  33.976911  -45.081268  -42.665604  6.592891  3.309036  7.722216  -9.306866  -2.493151  -0.303396  -9.698749  20.016266  -54.860472  2.285198  27.710571  49.706698  -2.014122  1.394213  5.903971  -1.220913  -3.274649  -0.591775  -3.275086  -8.97775  -1.459216  -3.275086  -8.97775  -1.459216  -34.250482  27.598391  -4.623228  125.282551  61.595065  -154.037651  -18.769741  4.623866  67.413904  49.561162  -4.232341  2.210823  -6.858299  -7.518166  10.492819  46.315686  46.047  34.413448  -27.349345  -6.253006  -107.091438  83.884374  -2.288095  -15.868117  -22.306121  -4.344465  12.561825  -16.640742  -3.724656  9.272737  
0.0  93.25843  0.0  -99.689016  39.867647  -177.006501  33.528231  -45.205825  -42.156463  7.415835  3.543797  8.365584  -9.067575  -2.537224  -0.352296  -8.994271  19.095029  -55.785561  3.678308  29.795799  53.672939  -1.889113  1.462723  6.007602  -1.292259  -3.204585  -0.621865  -3.468073  -8.789299  -1.535545  -3.468074  -8.7893  -1.535545  -34.231315  27.528948  -4.522658  125.988003  61.951712  -153.004026  -18.370379  4.495299  67.609107  49.708139  -4.447226  2.131965  -6.898118  -7.662119  10.489307  45.124539  46.851845  33.673214  -26.207479  -7.095215  -107.674263  83.613948  -2.377001  -15.519875  -22.018817  -4.290475  12.712002  -16.425707  -3.683481  9.389238  
0.0  93.25843  0.0  -99.139314  40.368913  -176.514936  33.22945  -45.085802  -41.608074  7.93323  3.751713  8.844838  -9.326952  -2.380826  -0.478284  -7.969388  18.933696  -56.847928  4.681466  30.966639  58.105705  -2.185456  1.573272  6.102007  -1.384016  -3.144004  -0.657913  -3.716312  -8.62772  -1.625428  -3.716313  -8.62772  -1.625427  -34.325063  27.390805  -4.6165  126.379145  62.158807  -152.42459  -18.087059  4.358955  67.946351  49.890867  -4.628627  2.316382  -6.869174  -7.828393  10.258789  44.359318  47.464468  33.270105  -25.152322  -8.105137  -108.186902  83.382391  -2.465241  -15.033088  -21.765518  -4.258619  12.774275  -16.236142  -3.65637  9.438657  
0.0  93.25843  0.0  -98.444132  40.853229  -175.89614  33.564571  -44.751537  -41.329105  7.708539  4.219758  8.97608  -9.269208  -2.210952  -0.30672  -6.849849  19.039421  -58.134849  5.519379  31.39727  62.722077  -2.390714  -0.356163  3.900718  -1.451642  -3.096004  -0.711776  -3.89583  -8.501231  -1.767096  -3.89583  -8.501231  -1.767095  -34.582438  27.268959  -4.731608  126.234287  62.227222  -152.421856  -18.011618  4.071379  68.380759  49.999092  -4.899426  2.585789  -7.552959  -7.748991  10.295339  44.415373  48.001721  32.915909  -24.257691  -9.049596  -108.798558  83.273992  -2.639988  -14.242481  -21.642207  -4.204222  12.81064  -16.14478  -3.614153  9.468713  
0.0  93.25843  0.0  -97.660201  41.325206  -175.169528  34.079397  -44.193736  -41.198783  7.057892  4.636241  9.154032  -9.026044  -2.133544  -0.197074  -5.857681  19.000228  -59.604906  6.385453  31.609936  67.406157  -2.690702  -0.131606  4.004683  -1.515863  -3.060577  -0.771212  -4.065199  -8.409626  -1.923994  -4.065199  -8.409626  -1.923994  -34.824347  27.094075  -4.898109  125.53041  62.228513  -152.887521  -18.120498  3.738783  68.819015  50.095677  -5.366486  2.72076  -7.642688  -8.005032  10.051724  44.472489  48.529461  33.166094  -23.651511  -9.732197  -109.392816  83.320532  -2.83114  -13.275258  -21.580012  -4.154439  12.788174  -16.099469  -3.574607  9.454064  
0.0  93.25843  0.0  -97.046176  41.832623  -174.800047  34.391584  -43.372048  -40.9219  6.104648  4.792427  9.454027  -9.100339  -2.00462  -0.206036  -5.113341  18.625193  -60.811869  7.338744  31.825292  71.872043  -2.243117  -1.938744  1.766727  -1.635222  -3.030862  -0.795774  -4.390475  -8.333262  -1.977903  -4.390475  -8.333262  -1.977902  -34.861992  26.932762  -4.922957  124.62695  62.361517  -153.448326  -18.347731  3.127702  69.064284  49.870649  -6.049943  2.890463  -7.667425  -8.285249  9.885244  44.704273  49.150276  33.620269  -23.126812  -10.205682  -110.22037  83.49374  -3.018156  -12.230181  -21.497114  -4.080856  12.720492  -16.039446  -3.515135  9.406457  
